<svg width="144" height="54" viewBox="0 0 144 54" fill="none" xmlns="http://www.w3.org/2000/svg">
<g filter="url(#filter0_d_7_57)">
<rect x="14" y="0.25" width="125" height="36" rx="6.89655" fill="white" fill-opacity="0.05" shape-rendering="crispEdges"/>
<rect x="14" y="0.25" width="125" height="36" rx="6.89655" stroke="white" stroke-opacity="0.5" stroke-width="0.5" shape-rendering="crispEdges"/>
</g>
<path d="M26.3634 7.79956H25.3587C25.32 7.58488 25.2481 7.39596 25.1429 7.23281C25.0377 7.06965 24.9089 6.93118 24.7565 6.8174C24.6041 6.70362 24.4334 6.61775 24.2445 6.55978C24.0577 6.50182 23.8591 6.47284 23.6487 6.47284C23.2688 6.47284 22.9285 6.56837 22.6279 6.75944C22.3295 6.9505 22.0934 7.23066 21.9195 7.59991C21.7478 7.96916 21.6619 8.41999 21.6619 8.95239C21.6619 9.48909 21.7478 9.94207 21.9195 10.3113C22.0934 10.6806 22.3306 10.9597 22.6312 11.1486C22.9317 11.3375 23.2698 11.4319 23.6455 11.4319C23.8538 11.4319 24.0513 11.404 24.238 11.3482C24.427 11.2903 24.5976 11.2055 24.7501 11.0938C24.9025 10.9822 25.0313 10.8459 25.1365 10.6849C25.2438 10.5217 25.3179 10.3349 25.3587 10.1245L26.3634 10.1278C26.3097 10.4519 26.2056 10.7503 26.051 11.023C25.8986 11.2935 25.7022 11.5275 25.4617 11.725C25.2234 11.9203 24.9508 12.0717 24.6438 12.179C24.3368 12.2864 24.0019 12.34 23.6391 12.34C23.068 12.34 22.5592 12.2048 22.1127 11.9343C21.6662 11.6617 21.3141 11.272 21.0565 10.7654C20.801 10.2587 20.6733 9.6544 20.6733 8.95239C20.6733 8.24824 20.8021 7.64392 21.0597 7.13942C21.3173 6.63277 21.6694 6.2442 22.1159 5.97371C22.5625 5.70106 23.0702 5.56474 23.6391 5.56474C23.989 5.56474 24.3153 5.61519 24.618 5.71609C24.9229 5.81484 25.1966 5.96083 25.4392 6.15404C25.6818 6.3451 25.8825 6.5791 26.0414 6.85604C26.2002 7.13083 26.3076 7.44534 26.3634 7.79956ZM27.9862 5.65491V12.2499H27.0234V5.65491H27.9862ZM28.8281 12.2499V7.30365H29.791V12.2499H28.8281ZM29.3144 6.54046C29.1469 6.54046 29.0031 6.48465 28.8829 6.37301C28.7648 6.25923 28.7058 6.12398 28.7058 5.96727C28.7058 5.8084 28.7648 5.67315 28.8829 5.56152C29.0031 5.44774 29.1469 5.39085 29.3144 5.39085C29.4818 5.39085 29.6246 5.44774 29.7427 5.56152C29.8629 5.67315 29.923 5.8084 29.923 5.96727C29.923 6.12398 29.8629 6.25923 29.7427 6.37301C29.6246 6.48465 29.4818 6.54046 29.3144 6.54046ZM32.7647 12.3497C32.2773 12.3497 31.8576 12.2456 31.5056 12.0373C31.1556 11.827 30.8851 11.5318 30.6941 11.1518C30.5051 10.7697 30.4107 10.3221 30.4107 9.80897C30.4107 9.30232 30.5051 8.85579 30.6941 8.46936C30.8851 8.08294 31.1513 7.78131 31.4927 7.56449C31.8362 7.34766 32.2376 7.23925 32.697 7.23925C32.9761 7.23925 33.2466 7.2854 33.5085 7.37771C33.7704 7.47003 34.0055 7.61494 34.2137 7.81244C34.422 8.00995 34.5862 8.26649 34.7064 8.58207C34.8267 8.8955 34.8868 9.27656 34.8868 9.72524V10.0666H30.9549V9.34526H33.9432C33.9432 9.09193 33.8917 8.86759 33.7887 8.67224C33.6856 8.47473 33.5407 8.31909 33.354 8.20531C33.1693 8.09153 32.9525 8.03464 32.7035 8.03464C32.433 8.03464 32.1968 8.10119 31.995 8.23429C31.7954 8.36524 31.6408 8.53699 31.5313 8.74952C31.424 8.95991 31.3703 9.18854 31.3703 9.43542V9.99896C31.3703 10.3296 31.4283 10.6108 31.5442 10.8427C31.6623 11.0745 31.8265 11.2516 32.0369 11.374C32.2473 11.4942 32.4931 11.5543 32.7743 11.5543C32.9568 11.5543 33.1232 11.5286 33.2734 11.477C33.4237 11.4234 33.5536 11.3439 33.6631 11.2387C33.7726 11.1335 33.8563 11.0037 33.9143 10.8491L34.8256 11.0133C34.7526 11.2817 34.6216 11.5167 34.4327 11.7185C34.2459 11.9182 34.0109 12.0738 33.7275 12.1855C33.4463 12.295 33.1253 12.3497 32.7647 12.3497ZM36.4645 9.31305V12.2499H35.5017V7.30365H36.4259V8.1087H36.487C36.6008 7.84679 36.779 7.6364 37.0216 7.47754C37.2663 7.31868 37.5744 7.23925 37.9458 7.23925C38.2828 7.23925 38.578 7.31009 38.8314 7.45178C39.0847 7.59132 39.2811 7.79956 39.4206 8.0765C39.5602 8.35344 39.63 8.69585 39.63 9.10374V12.2499H38.6671V9.21967C38.6671 8.86115 38.5737 8.581 38.387 8.3792C38.2002 8.17525 37.9436 8.07328 37.6173 8.07328C37.3941 8.07328 37.1955 8.12158 37.0216 8.21819C36.8499 8.31479 36.7135 8.45648 36.6126 8.64325C36.5139 8.82788 36.4645 9.05115 36.4645 9.31305ZM42.7767 7.30365V8.0765H40.075V7.30365H42.7767ZM40.7995 6.11862H41.7624V10.7976C41.7624 10.9843 41.7903 11.125 41.8461 11.2194C41.9019 11.3117 41.9738 11.3751 42.0619 11.4094C42.152 11.4416 42.2497 11.4577 42.3549 11.4577C42.4322 11.4577 42.4998 11.4523 42.5578 11.4416C42.6157 11.4309 42.6608 11.4223 42.693 11.4158L42.8669 12.2112C42.8111 12.2327 42.7317 12.2542 42.6286 12.2756C42.5256 12.2993 42.3968 12.3121 42.2422 12.3143C41.9889 12.3186 41.7527 12.2735 41.5337 12.179C41.3148 12.0846 41.1377 11.9386 41.0024 11.7411C40.8672 11.5436 40.7995 11.2956 40.7995 10.9972V6.11862ZM47.8466 5.34577L45.7213 13.2417H44.8615L46.9868 5.34577H47.8466ZM49.9096 6.51148V5.65491H55.0137V6.51148H52.956V12.2499H51.9641V6.51148H49.9096ZM57.0253 12.3497C56.538 12.3497 56.1183 12.2456 55.7662 12.0373C55.4163 11.827 55.1458 11.5318 54.9547 11.1518C54.7658 10.7697 54.6714 10.3221 54.6714 9.80897C54.6714 9.30232 54.7658 8.85579 54.9547 8.46936C55.1458 8.08294 55.412 7.78131 55.7533 7.56449C56.0968 7.34766 56.4983 7.23925 56.9577 7.23925C57.2368 7.23925 57.5073 7.2854 57.7692 7.37771C58.0311 7.47003 58.2662 7.61494 58.4744 7.81244C58.6827 8.00995 58.8469 8.26649 58.9671 8.58207C59.0873 8.8955 59.1474 9.27656 59.1474 9.72524V10.0666H55.2156V9.34526H58.2039C58.2039 9.09193 58.1524 8.86759 58.0493 8.67224C57.9463 8.47473 57.8014 8.31909 57.6146 8.20531C57.43 8.09153 57.2132 8.03464 56.9641 8.03464C56.6936 8.03464 56.4575 8.10119 56.2557 8.23429C56.056 8.36524 55.9015 8.53699 55.792 8.74952C55.6846 8.95991 55.631 9.18854 55.631 9.43542V9.99896C55.631 10.3296 55.6889 10.6108 55.8049 10.8427C55.9229 11.0745 56.0872 11.2516 56.2976 11.374C56.5079 11.4942 56.7538 11.5543 57.035 11.5543C57.2175 11.5543 57.3838 11.5286 57.5341 11.477C57.6844 11.4234 57.8143 11.3439 57.9238 11.2387C58.0332 11.1335 58.117 11.0037 58.1749 10.8491L59.0863 11.0133C59.0133 11.2817 58.8823 11.5167 58.6934 11.7185C58.5066 11.9182 58.2715 12.0738 57.9882 12.1855C57.7069 12.295 57.386 12.3497 57.0253 12.3497ZM61.2018 12.3594C60.8883 12.3594 60.605 12.3014 60.3516 12.1855C60.0983 12.0674 59.8976 11.8967 59.7495 11.6735C59.6035 11.4502 59.5305 11.1765 59.5305 10.8523C59.5305 10.5732 59.5842 10.3435 59.6915 10.1632C59.7988 9.98286 59.9437 9.84009 60.1262 9.7349C60.3087 9.62971 60.5126 9.55028 60.7381 9.49661C60.9635 9.44294 61.1932 9.40215 61.4272 9.37424C61.7234 9.33989 61.9639 9.31198 62.1485 9.29051C62.3331 9.2669 62.4673 9.22933 62.551 9.17781C62.6348 9.12628 62.6766 9.04256 62.6766 8.92663V8.90409C62.6766 8.62286 62.5972 8.40496 62.4383 8.25039C62.2816 8.09582 62.0476 8.01853 61.7363 8.01853C61.4122 8.01853 61.1567 8.09045 60.9699 8.23429C60.7853 8.37598 60.6576 8.53377 60.5867 8.70766L59.6818 8.50156C59.7892 8.20101 59.9459 7.95842 60.152 7.7738C60.3602 7.58703 60.5996 7.45178 60.8701 7.36805C61.1406 7.28218 61.425 7.23925 61.7234 7.23925C61.9209 7.23925 62.1303 7.26286 62.3514 7.31009C62.5746 7.35517 62.7829 7.4389 62.9761 7.56127C63.1715 7.68363 63.3314 7.8586 63.4559 8.08616C63.5804 8.31157 63.6427 8.60461 63.6427 8.96527V12.2499H62.7024V11.5736H62.6637C62.6015 11.6982 62.5081 11.8205 62.3836 11.9407C62.2591 12.061 62.0991 12.1608 61.9038 12.2402C61.7084 12.3196 61.4744 12.3594 61.2018 12.3594ZM61.4111 11.5865C61.6773 11.5865 61.9048 11.5339 62.0938 11.4287C62.2848 11.3235 62.4297 11.1861 62.5285 11.0165C62.6294 10.8448 62.6798 10.6612 62.6798 10.4659V9.82829C62.6455 9.86264 62.5789 9.89484 62.4802 9.92489C62.3836 9.9528 62.273 9.97749 62.1485 9.99896C62.024 10.0183 61.9027 10.0365 61.7846 10.0537C61.6665 10.0687 61.5678 10.0816 61.4884 10.0923C61.3016 10.116 61.1309 10.1557 60.9764 10.2115C60.8239 10.2673 60.7016 10.3478 60.6092 10.453C60.5191 10.5561 60.474 10.6934 60.474 10.8652C60.474 11.1035 60.562 11.2838 60.7381 11.4062C60.9141 11.5264 61.1384 11.5865 61.4111 11.5865ZM64.4717 12.2499V7.30365H65.3959V8.1087H65.4571C65.5601 7.83606 65.7287 7.62352 65.9627 7.4711C66.1967 7.31653 66.4768 7.23925 66.8031 7.23925C67.1337 7.23925 67.4107 7.31653 67.634 7.4711C67.8594 7.62567 68.0257 7.8382 68.1331 8.1087H68.1846C68.3027 7.84464 68.4905 7.63426 68.7481 7.47754C69.0058 7.31868 69.3128 7.23925 69.6691 7.23925C70.1178 7.23925 70.4838 7.37986 70.7672 7.66109C71.0527 7.94232 71.1955 8.36632 71.1955 8.93307V12.2499H70.2327V9.02324C70.2327 8.68834 70.1414 8.44575 69.9589 8.29547C69.7765 8.1452 69.5586 8.07006 69.3052 8.07006C68.9918 8.07006 68.7481 8.16666 68.5743 8.35988C68.4004 8.55094 68.3134 8.79675 68.3134 9.0973V12.2499H67.3538V8.96205C67.3538 8.6937 67.2701 8.47795 67.1026 8.31479C66.9352 8.15164 66.7173 8.07006 66.4489 8.07006C66.2664 8.07006 66.0979 8.11836 65.9433 8.21497C65.7909 8.30943 65.6675 8.44145 65.573 8.61105C65.4807 8.78065 65.4346 8.97708 65.4346 9.20035V12.2499H64.4717Z" fill="#BE82FF"/>
<path d="M20.3993 16.5116V15.655H25.5033V16.5116H23.4456V22.25H22.4538V16.5116H20.3993ZM27.0633 19.3132V22.25H26.1005V15.655H27.0505V18.1088H27.1117C27.2276 17.8426 27.4047 17.6312 27.643 17.4744C27.8813 17.3177 28.1926 17.2394 28.5768 17.2394C28.916 17.2394 29.2123 17.3091 29.4656 17.4487C29.7211 17.5882 29.9186 17.7965 30.0581 18.0734C30.1998 18.3482 30.2707 18.6917 30.2707 19.1039V22.25H29.3078V19.2198C29.3078 18.857 29.2144 18.5758 29.0277 18.3761C28.8409 18.1743 28.5811 18.0734 28.2484 18.0734C28.0208 18.0734 27.8169 18.1217 27.6365 18.2183C27.4584 18.3149 27.3177 18.4566 27.2147 18.6434C27.1138 18.828 27.0633 19.0513 27.0633 19.3132ZM31.1021 22.25V17.3038H32.065V22.25H31.1021ZM31.5884 16.5406C31.4209 16.5406 31.2771 16.4848 31.1569 16.3731C31.0388 16.2594 30.9798 16.1241 30.9798 15.9674C30.9798 15.8085 31.0388 15.6733 31.1569 15.5616C31.2771 15.4479 31.4209 15.391 31.5884 15.391C31.7558 15.391 31.8986 15.4479 32.0167 15.5616C32.1369 15.6733 32.197 15.8085 32.197 15.9674C32.197 16.1241 32.1369 16.2594 32.0167 16.3731C31.8986 16.4848 31.7558 16.5406 31.5884 16.5406ZM36.6133 18.5113L35.7407 18.6659C35.7042 18.5543 35.6462 18.448 35.5668 18.3471C35.4895 18.2462 35.3843 18.1636 35.2512 18.0992C35.1181 18.0348 34.9517 18.0026 34.7521 18.0026C34.4794 18.0026 34.2519 18.0637 34.0694 18.1861C33.8869 18.3063 33.7957 18.462 33.7957 18.653C33.7957 18.8183 33.8568 18.9514 33.9792 19.0523C34.1016 19.1532 34.2991 19.2359 34.5717 19.3003L35.3575 19.4806C35.8126 19.5858 36.1518 19.7479 36.375 19.9669C36.5983 20.1859 36.7099 20.4703 36.7099 20.8202C36.7099 21.1165 36.6241 21.3805 36.4523 21.6124C36.2827 21.8421 36.0455 22.0224 35.7407 22.1534C35.438 22.2843 35.087 22.3498 34.6877 22.3498C34.1338 22.3498 33.6819 22.2318 33.332 21.9956C32.982 21.7573 32.7673 21.4192 32.6879 20.9812L33.6186 20.8396C33.6765 21.0821 33.7957 21.2657 33.976 21.3902C34.1563 21.5126 34.3914 21.5738 34.6812 21.5738C34.9968 21.5738 35.249 21.5083 35.438 21.3773C35.6269 21.2442 35.7213 21.0821 35.7213 20.8911C35.7213 20.7365 35.6634 20.6066 35.5475 20.5014C35.4337 20.3962 35.2587 20.3168 35.0226 20.2631L34.1853 20.0796C33.7237 19.9744 33.3824 19.8069 33.1613 19.5772C32.9423 19.3475 32.8328 19.0566 32.8328 18.7046C32.8328 18.4126 32.9144 18.1571 33.0776 17.9382C33.2407 17.7192 33.4661 17.5485 33.7538 17.4261C34.0415 17.3016 34.371 17.2394 34.7424 17.2394C35.277 17.2394 35.6977 17.3553 36.0047 17.5871C36.3117 17.8169 36.5146 18.1249 36.6133 18.5113ZM39.2616 22.25V17.3038H40.2245V22.25H39.2616ZM39.7479 16.5406C39.5804 16.5406 39.4366 16.4848 39.3164 16.3731C39.1983 16.2594 39.1393 16.1241 39.1393 15.9674C39.1393 15.8085 39.1983 15.6733 39.3164 15.5616C39.4366 15.4479 39.5804 15.391 39.7479 15.391C39.9153 15.391 40.0581 15.4479 40.1762 15.5616C40.2964 15.6733 40.3565 15.8085 40.3565 15.9674C40.3565 16.1241 40.2964 16.2594 40.1762 16.3731C40.0581 16.4848 39.9153 16.5406 39.7479 16.5406ZM44.7728 18.5113L43.9002 18.6659C43.8637 18.5543 43.8057 18.448 43.7263 18.3471C43.649 18.2462 43.5438 18.1636 43.4107 18.0992C43.2776 18.0348 43.1112 18.0026 42.9116 18.0026C42.6389 18.0026 42.4114 18.0637 42.2289 18.1861C42.0464 18.3063 41.9552 18.462 41.9552 18.653C41.9552 18.8183 42.0163 18.9514 42.1387 19.0523C42.2611 19.1532 42.4586 19.2359 42.7312 19.3003L43.517 19.4806C43.9721 19.5858 44.3113 19.7479 44.5345 19.9669C44.7578 20.1859 44.8694 20.4703 44.8694 20.8202C44.8694 21.1165 44.7836 21.3805 44.6118 21.6124C44.4422 21.8421 44.205 22.0224 43.9002 22.1534C43.5975 22.2843 43.2465 22.3498 42.8472 22.3498C42.2933 22.3498 41.8414 22.2318 41.4915 21.9956C41.1415 21.7573 40.9268 21.4192 40.8474 20.9812L41.7781 20.8396C41.836 21.0821 41.9552 21.2657 42.1355 21.3902C42.3158 21.5126 42.5509 21.5738 42.8407 21.5738C43.1563 21.5738 43.4085 21.5083 43.5975 21.3773C43.7864 21.2442 43.8808 21.0821 43.8808 20.8911C43.8808 20.7365 43.8229 20.6066 43.707 20.5014C43.5932 20.3962 43.4182 20.3168 43.1821 20.2631L42.3448 20.0796C41.8832 19.9744 41.5419 19.8069 41.3208 19.5772C41.1018 19.3475 40.9923 19.0566 40.9923 18.7046C40.9923 18.4126 41.0739 18.1571 41.2371 17.9382C41.4002 17.7192 41.6256 17.5485 41.9133 17.4261C42.201 17.3016 42.5305 17.2394 42.9019 17.2394C43.4365 17.2394 43.8572 17.3553 44.1642 17.5871C44.4712 17.8169 44.6741 18.1249 44.7728 18.5113ZM49.5529 22.3498C49.0656 22.3498 48.6459 22.2457 48.2938 22.0375C47.9439 21.8271 47.6734 21.5319 47.4823 21.1519C47.2934 20.7698 47.1989 20.3222 47.1989 19.8091C47.1989 19.3024 47.2934 18.8559 47.4823 18.4695C47.6734 18.0831 47.9396 17.7814 48.2809 17.5646C48.6244 17.3478 49.0259 17.2394 49.4853 17.2394C49.7644 17.2394 50.0349 17.2855 50.2968 17.3778C50.5587 17.4701 50.7938 17.6151 51.002 17.8126C51.2102 18.0101 51.3745 18.2666 51.4947 18.5822C51.6149 18.8956 51.675 19.2767 51.675 19.7254V20.0667H47.7432V19.3454H50.7315C50.7315 19.0921 50.68 18.8677 50.5769 18.6724C50.4739 18.4749 50.329 18.3192 50.1422 18.2054C49.9576 18.0916 49.7408 18.0348 49.4917 18.0348C49.2212 18.0348 48.9851 18.1013 48.7833 18.2344C48.5836 18.3654 48.4291 18.5371 48.3196 18.7496C48.2122 18.96 48.1586 19.1887 48.1586 19.4355V19.9991C48.1586 20.3297 48.2165 20.6109 48.3325 20.8428C48.4505 21.0746 48.6148 21.2517 48.8251 21.3741C49.0355 21.4943 49.2813 21.5544 49.5626 21.5544C49.745 21.5544 49.9114 21.5287 50.0617 21.4772C50.212 21.4235 50.3419 21.3441 50.4513 21.2389C50.5608 21.1337 50.6446 21.0038 50.7025 20.8492L51.6138 21.0134C51.5408 21.2818 51.4099 21.5169 51.221 21.7187C51.0342 21.9183 50.7991 22.074 50.5157 22.1856C50.2345 22.2951 49.9136 22.3498 49.5529 22.3498ZM52.9348 17.3038L54.0264 19.2295L55.1277 17.3038H56.1807L54.6382 19.7769L56.1936 22.25H55.1406L54.0264 20.4016L52.9154 22.25H51.8592L53.3985 19.7769L51.8785 17.3038H52.9348ZM58.1465 22.3595C57.8331 22.3595 57.5497 22.3015 57.2964 22.1856C57.043 22.0675 56.8423 21.8969 56.6942 21.6736C56.5482 21.4503 56.4752 21.1766 56.4752 20.8524C56.4752 20.5733 56.5289 20.3436 56.6362 20.1633C56.7436 19.983 56.8885 19.8402 57.0709 19.735C57.2534 19.6298 57.4574 19.5504 57.6828 19.4967C57.9082 19.4431 58.1379 19.4023 58.3719 19.3744C58.6682 19.34 58.9086 19.3121 59.0932 19.2906C59.2779 19.267 59.412 19.2295 59.4958 19.1779C59.5795 19.1264 59.6213 19.0427 59.6213 18.9268V18.9042C59.6213 18.623 59.5419 18.4051 59.3831 18.2505C59.2263 18.0959 58.9923 18.0187 58.6811 18.0187C58.3569 18.0187 58.1014 18.0906 57.9146 18.2344C57.73 18.3761 57.6023 18.5339 57.5314 18.7078L56.6266 18.5017C56.7339 18.2011 56.8906 17.9585 57.0967 17.7739C57.305 17.5871 57.5443 17.4519 57.8148 17.3682C58.0853 17.2823 58.3698 17.2394 58.6682 17.2394C58.8657 17.2394 59.075 17.263 59.2961 17.3102C59.5194 17.3553 59.7276 17.439 59.9208 17.5614C60.1162 17.6838 60.2761 17.8587 60.4006 18.0863C60.5252 18.3117 60.5874 18.6047 60.5874 18.9654V22.25H59.6471V21.5738H59.6085C59.5462 21.6983 59.4528 21.8206 59.3283 21.9409C59.2038 22.0611 59.0439 22.1609 58.8485 22.2403C58.6531 22.3198 58.4191 22.3595 58.1465 22.3595ZM58.3558 21.5866C58.622 21.5866 58.8496 21.534 59.0385 21.4288C59.2296 21.3237 59.3745 21.1863 59.4732 21.0167C59.5741 20.8449 59.6246 20.6614 59.6246 20.466V19.8284C59.5902 19.8628 59.5237 19.895 59.4249 19.925C59.3283 19.9529 59.2178 19.9776 59.0932 19.9991C58.9687 20.0184 58.8474 20.0366 58.7294 20.0538C58.6113 20.0689 58.5125 20.0817 58.4331 20.0925C58.2463 20.1161 58.0757 20.1558 57.9211 20.2116C57.7687 20.2674 57.6463 20.3479 57.554 20.4531C57.4638 20.5562 57.4187 20.6936 57.4187 20.8653C57.4187 21.1036 57.5068 21.2839 57.6828 21.4063C57.8588 21.5265 58.0832 21.5866 58.3558 21.5866ZM63.4999 22.3498C63.0212 22.3498 62.609 22.2414 62.2634 22.0246C61.9199 21.8056 61.6558 21.504 61.4712 21.1197C61.2866 20.7354 61.1943 20.2953 61.1943 19.7994C61.1943 19.2971 61.2887 18.8538 61.4776 18.4695C61.6666 18.0831 61.9328 17.7814 62.2762 17.5646C62.6197 17.3478 63.0244 17.2394 63.4903 17.2394C63.8659 17.2394 64.2008 17.3091 64.495 17.4487C64.7891 17.5861 65.0263 17.7793 65.2066 18.0283C65.3891 18.2773 65.4975 18.5682 65.5319 18.901H64.5948C64.5433 18.6691 64.4252 18.4695 64.2406 18.302C64.0581 18.1346 63.8134 18.0509 63.5064 18.0509C63.238 18.0509 63.0029 18.1217 62.8011 18.2634C62.6015 18.4029 62.4458 18.6026 62.3342 18.8623C62.2226 19.12 62.1668 19.4248 62.1668 19.7769C62.1668 20.1375 62.2215 20.4488 62.331 20.7107C62.4405 20.9727 62.595 21.1755 62.7947 21.3194C62.9965 21.4632 63.2337 21.5351 63.5064 21.5351C63.6888 21.5351 63.8541 21.5018 64.0023 21.4353C64.1525 21.3666 64.2781 21.2689 64.379 21.1423C64.4821 21.0156 64.554 20.8632 64.5948 20.685H65.5319C65.4975 21.0049 65.3934 21.2904 65.2195 21.5416C65.0456 21.7927 64.8127 21.9902 64.5207 22.1341C64.2309 22.2779 63.8906 22.3498 63.4999 22.3498ZM68.417 17.3038V18.0766H65.7153V17.3038H68.417ZM66.4398 16.1187H67.4026V20.7977C67.4026 20.9845 67.4305 21.1251 67.4864 21.2195C67.5422 21.3118 67.6141 21.3752 67.7021 21.4095C67.7923 21.4417 67.89 21.4578 67.9952 21.4578C68.0724 21.4578 68.1401 21.4525 68.198 21.4417C68.256 21.431 68.3011 21.4224 68.3333 21.416L68.5072 22.2114C68.4514 22.2328 68.3719 22.2543 68.2689 22.2758C68.1658 22.2994 68.037 22.3123 67.8824 22.3144C67.6291 22.3187 67.393 22.2736 67.174 22.1792C66.955 22.0847 66.7779 21.9387 66.6427 21.7412C66.5074 21.5437 66.4398 21.2957 66.4398 20.9973V16.1187ZM70.0978 15.655V22.25H69.1349V15.655H70.0978ZM71.5483 24.1048C71.4045 24.1048 71.2735 24.093 71.1555 24.0694C71.0374 24.0479 70.9494 24.0243 70.8914 23.9986L71.1233 23.2096C71.2993 23.2568 71.456 23.2772 71.5934 23.2708C71.7308 23.2644 71.8521 23.2128 71.9573 23.1162C72.0646 23.0196 72.1591 22.8618 72.2407 22.6429L72.3598 22.3144L70.5501 17.3038H71.5805L72.8332 21.1423H72.8847L74.1374 17.3038H75.1711L73.1327 22.9101C73.0382 23.1678 72.918 23.3857 72.772 23.5638C72.626 23.7442 72.4521 23.8794 72.2503 23.9696C72.0485 24.0598 71.8145 24.1048 71.5483 24.1048ZM78.6413 22.25L77.1858 17.3038H78.1808L79.1501 20.9362H79.1984L80.1709 17.3038H81.1659L82.132 20.9201H82.1803L83.1431 17.3038H84.1382L82.6859 22.25H81.7037L80.699 18.6788H80.6249L79.6202 22.25H78.6413ZM85.5614 19.3132V22.25H84.5985V15.655H85.5485V18.1088H85.6097C85.7256 17.8426 85.9027 17.6312 86.141 17.4744C86.3793 17.3177 86.6906 17.2394 87.0748 17.2394C87.414 17.2394 87.7103 17.3091 87.9636 17.4487C88.2191 17.5882 88.4166 17.7965 88.5561 18.0734C88.6978 18.3482 88.7687 18.6917 88.7687 19.1039V22.25H87.8058V19.2198C87.8058 18.857 87.7124 18.5758 87.5257 18.3761C87.3389 18.1743 87.0791 18.0734 86.7464 18.0734C86.5188 18.0734 86.3149 18.1217 86.1345 18.2183C85.9564 18.3149 85.8157 18.4566 85.7127 18.6434C85.6118 18.828 85.5614 19.0513 85.5614 19.3132ZM91.0396 22.3595C90.7261 22.3595 90.4427 22.3015 90.1894 22.1856C89.9361 22.0675 89.7354 21.8969 89.5872 21.6736C89.4413 21.4503 89.3683 21.1766 89.3683 20.8524C89.3683 20.5733 89.4219 20.3436 89.5293 20.1633C89.6366 19.983 89.7815 19.8402 89.964 19.735C90.1465 19.6298 90.3504 19.5504 90.5758 19.4967C90.8013 19.4431 91.031 19.4023 91.265 19.3744C91.5612 19.34 91.8017 19.3121 91.9863 19.2906C92.1709 19.267 92.3051 19.2295 92.3888 19.1779C92.4725 19.1264 92.5144 19.0427 92.5144 18.9268V18.9042C92.5144 18.623 92.435 18.4051 92.2761 18.2505C92.1194 18.0959 91.8854 18.0187 91.5741 18.0187C91.2499 18.0187 90.9945 18.0906 90.8077 18.2344C90.6231 18.3761 90.4953 18.5339 90.4245 18.7078L89.5196 18.5017C89.627 18.2011 89.7837 17.9585 89.9898 17.7739C90.198 17.5871 90.4374 17.4519 90.7079 17.3682C90.9784 17.2823 91.2628 17.2394 91.5612 17.2394C91.7587 17.2394 91.968 17.263 92.1892 17.3102C92.4124 17.3553 92.6207 17.439 92.8139 17.5614C93.0092 17.6838 93.1692 17.8587 93.2937 18.0863C93.4182 18.3117 93.4805 18.6047 93.4805 18.9654V22.25H92.5402V21.5738H92.5015C92.4393 21.6983 92.3459 21.8206 92.2214 21.9409C92.0969 22.0611 91.9369 22.1609 91.7416 22.2403C91.5462 22.3198 91.3122 22.3595 91.0396 22.3595ZM91.2489 21.5866C91.5151 21.5866 91.7426 21.534 91.9316 21.4288C92.1226 21.3237 92.2675 21.1863 92.3663 21.0167C92.4672 20.8449 92.5176 20.6614 92.5176 20.466V19.8284C92.4833 19.8628 92.4167 19.895 92.318 19.925C92.2214 19.9529 92.1108 19.9776 91.9863 19.9991C91.8618 20.0184 91.7405 20.0366 91.6224 20.0538C91.5043 20.0689 91.4056 20.0817 91.3262 20.0925C91.1394 20.1161 90.9687 20.1558 90.8141 20.2116C90.6617 20.2674 90.5394 20.3479 90.447 20.4531C90.3569 20.5562 90.3118 20.6936 90.3118 20.8653C90.3118 21.1036 90.3998 21.2839 90.5758 21.4063C90.7519 21.5265 90.9762 21.5866 91.2489 21.5866ZM96.6184 17.3038V18.0766H93.9166V17.3038H96.6184ZM94.6412 16.1187H95.604V20.7977C95.604 20.9845 95.6319 21.1251 95.6878 21.2195C95.7436 21.3118 95.8155 21.3752 95.9035 21.4095C95.9937 21.4417 96.0914 21.4578 96.1965 21.4578C96.2738 21.4578 96.3415 21.4525 96.3994 21.4417C96.4574 21.431 96.5025 21.4224 96.5347 21.416L96.7086 22.2114C96.6527 22.2328 96.5733 22.2543 96.4703 22.2758C96.3672 22.2994 96.2384 22.3123 96.0838 22.3144C95.8305 22.3187 95.5944 22.2736 95.3754 22.1792C95.1564 22.0847 94.9793 21.9387 94.8441 21.7412C94.7088 21.5437 94.6412 21.2957 94.6412 20.9973V16.1187ZM101.26 22.3498C100.796 22.3498 100.392 22.2436 100.046 22.031C99.7003 21.8185 99.432 21.5212 99.2409 21.139C99.0499 20.7569 98.9543 20.3104 98.9543 19.7994C98.9543 19.2863 99.0499 18.8377 99.2409 18.4534C99.432 18.0691 99.7003 17.7707 100.046 17.5582C100.392 17.3456 100.796 17.2394 101.26 17.2394C101.724 17.2394 102.128 17.3456 102.474 17.5582C102.82 17.7707 103.088 18.0691 103.279 18.4534C103.47 18.8377 103.566 19.2863 103.566 19.7994C103.566 20.3104 103.47 20.7569 103.279 21.139C103.088 21.5212 102.82 21.8185 102.474 22.031C102.128 22.2436 101.724 22.3498 101.26 22.3498ZM101.263 21.5416C101.564 21.5416 101.813 21.4621 102.01 21.3033C102.208 21.1444 102.354 20.9329 102.448 20.6689C102.545 20.4048 102.593 20.1139 102.593 19.7962C102.593 19.4806 102.545 19.1908 102.448 18.9268C102.354 18.6605 102.208 18.4469 102.01 18.2859C101.813 18.1249 101.564 18.0444 101.263 18.0444C100.961 18.0444 100.709 18.1249 100.51 18.2859C100.312 18.4469 100.165 18.6605 100.069 18.9268C99.9741 19.1908 99.9268 19.4806 99.9268 19.7962C99.9268 20.1139 99.9741 20.4048 100.069 20.6689C100.165 20.9329 100.312 21.1444 100.51 21.3033C100.709 21.4621 100.961 21.5416 101.263 21.5416ZM107.32 20.1987V17.3038H108.286V22.25H107.34V21.3934H107.288C107.174 21.6575 106.992 21.8775 106.741 22.0536C106.492 22.2275 106.181 22.3144 105.81 22.3144C105.492 22.3144 105.211 22.2446 104.966 22.1051C104.724 21.9634 104.533 21.7541 104.393 21.4772C104.256 21.2002 104.187 20.8578 104.187 20.4499V17.3038H105.15V20.334C105.15 20.671 105.243 20.9394 105.43 21.139C105.617 21.3387 105.859 21.4385 106.158 21.4385C106.338 21.4385 106.517 21.3934 106.696 21.3033C106.876 21.2131 107.025 21.0768 107.143 20.8943C107.263 20.7118 107.322 20.48 107.32 20.1987ZM109.127 22.25V17.3038H110.057V18.0895H110.109C110.199 17.8233 110.358 17.614 110.585 17.4616C110.815 17.307 111.075 17.2297 111.365 17.2297C111.425 17.2297 111.496 17.2319 111.577 17.2361C111.661 17.2404 111.726 17.2458 111.774 17.2522V18.1732C111.735 18.1625 111.666 18.1507 111.568 18.1378C111.469 18.1228 111.37 18.1153 111.271 18.1153C111.044 18.1153 110.841 18.1636 110.663 18.2602C110.487 18.3546 110.347 18.4867 110.244 18.6563C110.141 18.8237 110.089 19.0148 110.089 19.2295V22.25H109.127ZM116.409 17.3038V18.0766H113.707V17.3038H116.409ZM114.432 16.1187H115.394V20.7977C115.394 20.9845 115.422 21.1251 115.478 21.2195C115.534 21.3118 115.606 21.3752 115.694 21.4095C115.784 21.4417 115.882 21.4578 115.987 21.4578C116.064 21.4578 116.132 21.4525 116.19 21.4417C116.248 21.431 116.293 21.4224 116.325 21.416L116.499 22.2114C116.443 22.2328 116.364 22.2543 116.261 22.2758C116.158 22.2994 116.029 22.3123 115.874 22.3144C115.621 22.3187 115.385 22.2736 115.166 22.1792C114.947 22.0847 114.77 21.9387 114.634 21.7412C114.499 21.5437 114.432 21.2957 114.432 20.9973V16.1187ZM119.099 22.3498C118.612 22.3498 118.192 22.2457 117.84 22.0375C117.49 21.8271 117.22 21.5319 117.029 21.1519C116.84 20.7698 116.745 20.3222 116.745 19.8091C116.745 19.3024 116.84 18.8559 117.029 18.4695C117.22 18.0831 117.486 17.7814 117.827 17.5646C118.171 17.3478 118.572 17.2394 119.031 17.2394C119.311 17.2394 119.581 17.2855 119.843 17.3778C120.105 17.4701 120.34 17.6151 120.548 17.8126C120.756 18.0101 120.921 18.2666 121.041 18.5822C121.161 18.8956 121.221 19.2767 121.221 19.7254V20.0667H117.289V19.3454H120.278C120.278 19.0921 120.226 18.8677 120.123 18.6724C120.02 18.4749 119.875 18.3192 119.688 18.2054C119.504 18.0916 119.287 18.0348 119.038 18.0348C118.767 18.0348 118.531 18.1013 118.329 18.2344C118.13 18.3654 117.975 18.5371 117.866 18.7496C117.758 18.96 117.705 19.1887 117.705 19.4355V19.9991C117.705 20.3297 117.763 20.6109 117.879 20.8428C117.997 21.0746 118.161 21.2517 118.371 21.3741C118.582 21.4943 118.828 21.5544 119.109 21.5544C119.291 21.5544 119.458 21.5287 119.608 21.4772C119.758 21.4235 119.888 21.3441 119.998 21.2389C120.107 21.1337 120.191 21.0038 120.249 20.8492L121.16 21.0134C121.087 21.2818 120.956 21.5169 120.767 21.7187C120.58 21.9183 120.345 22.074 120.062 22.1856C119.781 22.2951 119.46 22.3498 119.099 22.3498ZM123.276 22.3595C122.962 22.3595 122.679 22.3015 122.425 22.1856C122.172 22.0675 121.971 21.8969 121.823 21.6736C121.677 21.4503 121.604 21.1766 121.604 20.8524C121.604 20.5733 121.658 20.3436 121.765 20.1633C121.873 19.983 122.018 19.8402 122.2 19.735C122.382 19.6298 122.586 19.5504 122.812 19.4967C123.037 19.4431 123.267 19.4023 123.501 19.3744C123.797 19.34 124.038 19.3121 124.222 19.2906C124.407 19.267 124.541 19.2295 124.625 19.1779C124.709 19.1264 124.75 19.0427 124.75 18.9268V18.9042C124.75 18.623 124.671 18.4051 124.512 18.2505C124.355 18.0959 124.121 18.0187 123.81 18.0187C123.486 18.0187 123.23 18.0906 123.044 18.2344C122.859 18.3761 122.731 18.5339 122.66 18.7078L121.756 18.5017C121.863 18.2011 122.02 17.9585 122.226 17.7739C122.434 17.5871 122.673 17.4519 122.944 17.3682C123.214 17.2823 123.499 17.2394 123.797 17.2394C123.995 17.2394 124.204 17.263 124.425 17.3102C124.648 17.3553 124.857 17.439 125.05 17.5614C125.245 17.6838 125.405 17.8587 125.53 18.0863C125.654 18.3117 125.716 18.6047 125.716 18.9654V22.25H124.776V21.5738H124.738C124.675 21.6983 124.582 21.8206 124.457 21.9409C124.333 22.0611 124.173 22.1609 123.978 22.2403C123.782 22.3198 123.548 22.3595 123.276 22.3595ZM123.485 21.5866C123.751 21.5866 123.979 21.534 124.168 21.4288C124.359 21.3237 124.504 21.1863 124.602 21.0167C124.703 20.8449 124.754 20.6614 124.754 20.466V19.8284C124.719 19.8628 124.653 19.895 124.554 19.925C124.457 19.9529 124.347 19.9776 124.222 19.9991C124.098 20.0184 123.976 20.0366 123.858 20.0538C123.74 20.0689 123.642 20.0817 123.562 20.0925C123.375 20.1161 123.205 20.1558 123.05 20.2116C122.898 20.2674 122.775 20.3479 122.683 20.4531C122.593 20.5562 122.548 20.6936 122.548 20.8653C122.548 21.1036 122.636 21.2839 122.812 21.4063C122.988 21.5265 123.212 21.5866 123.485 21.5866ZM126.545 22.25V17.3038H127.47V18.1088H127.531C127.634 17.8362 127.802 17.6236 128.036 17.4712C128.27 17.3167 128.551 17.2394 128.877 17.2394C129.208 17.2394 129.484 17.3167 129.708 17.4712C129.933 17.6258 130.1 17.8383 130.207 18.1088H130.258C130.376 17.8448 130.564 17.6344 130.822 17.4777C131.08 17.3188 131.387 17.2394 131.743 17.2394C132.192 17.2394 132.558 17.38 132.841 17.6612C133.127 17.9424 133.269 18.3664 133.269 18.9332V22.25H132.306V19.0234C132.306 18.6885 132.215 18.4459 132.033 18.2956C131.85 18.1453 131.632 18.0702 131.379 18.0702C131.066 18.0702 130.822 18.1668 130.648 18.36C130.474 18.5511 130.387 18.7969 130.387 19.0974V22.25H129.428V18.9622C129.428 18.6938 129.344 18.4781 129.176 18.3149C129.009 18.1518 128.791 18.0702 128.523 18.0702C128.34 18.0702 128.172 18.1185 128.017 18.2151C127.865 18.3095 127.741 18.4416 127.647 18.6112C127.554 18.7808 127.508 18.9772 127.508 19.2005V22.25H126.545ZM21.6101 28.3132V31.25H20.6473V26.3038H21.5715V27.1088H21.6326C21.7464 26.8469 21.9246 26.6365 22.1672 26.4777C22.4119 26.3188 22.72 26.2394 23.0914 26.2394C23.4284 26.2394 23.7236 26.3102 23.9769 26.4519C24.2303 26.5914 24.4267 26.7997 24.5662 27.0766C24.7058 27.3536 24.7756 27.696 24.7756 28.1039V31.25H23.8127V28.2198C23.8127 27.8613 23.7193 27.5811 23.5326 27.3793C23.3458 27.1754 23.0892 27.0734 22.7629 27.0734C22.5397 27.0734 22.3411 27.1217 22.1672 27.2183C21.9955 27.3149 21.8591 27.4566 21.7582 27.6434C21.6595 27.828 21.6101 28.0513 21.6101 28.3132ZM27.7452 31.3498C27.2579 31.3498 26.8382 31.2457 26.4861 31.0375C26.1362 30.8271 25.8657 30.5319 25.6746 30.1519C25.4857 29.7698 25.3913 29.3222 25.3913 28.8091C25.3913 28.3024 25.4857 27.8559 25.6746 27.4695C25.8657 27.0831 26.1319 26.7814 26.4732 26.5646C26.8167 26.3478 27.2182 26.2394 27.6776 26.2394C27.9567 26.2394 28.2272 26.2855 28.4891 26.3778C28.751 26.4701 28.9861 26.6151 29.1943 26.8126C29.4026 27.0101 29.5668 27.2666 29.687 27.5822C29.8072 27.8956 29.8673 28.2767 29.8673 28.7254V29.0667H25.9355V28.3454H28.9238C28.9238 28.0921 28.8723 27.8677 28.7693 27.6724C28.6662 27.4749 28.5213 27.3192 28.3345 27.2054C28.1499 27.0916 27.9331 27.0348 27.684 27.0348C27.4135 27.0348 27.1774 27.1013 26.9756 27.2344C26.7759 27.3654 26.6214 27.5371 26.5119 27.7496C26.4045 27.96 26.3509 28.1887 26.3509 28.4355V28.9991C26.3509 29.3297 26.4088 29.6109 26.5248 29.8428C26.6428 30.0746 26.8071 30.2517 27.0175 30.3741C27.2278 30.4943 27.4737 30.5544 27.7549 30.5544C27.9374 30.5544 28.1037 30.5287 28.254 30.4772C28.4043 30.4235 28.5342 30.3441 28.6437 30.2389C28.7531 30.1337 28.8369 30.0038 28.8948 29.8492L29.8062 30.0134C29.7332 30.2818 29.6022 30.5169 29.4133 30.7187C29.2265 30.9183 28.9914 31.074 28.7081 31.1856C28.4268 31.2951 28.1059 31.3498 27.7452 31.3498ZM32.614 31.3498C32.1267 31.3498 31.707 31.2457 31.3549 31.0375C31.005 30.8271 30.7345 30.5319 30.5434 30.1519C30.3545 29.7698 30.26 29.3222 30.26 28.8091C30.26 28.3024 30.3545 27.8559 30.5434 27.4695C30.7345 27.0831 31.0007 26.7814 31.342 26.5646C31.6855 26.3478 32.087 26.2394 32.5464 26.2394C32.8255 26.2394 33.096 26.2855 33.3579 26.3778C33.6198 26.4701 33.8549 26.6151 34.0631 26.8126C34.2713 27.0101 34.4356 27.2666 34.5558 27.5822C34.676 27.8956 34.7361 28.2767 34.7361 28.7254V29.0667H30.8043V28.3454H33.7926C33.7926 28.0921 33.7411 27.8677 33.638 27.6724C33.535 27.4749 33.3901 27.3192 33.2033 27.2054C33.0187 27.0916 32.8019 27.0348 32.5528 27.0348C32.2823 27.0348 32.0462 27.1013 31.8444 27.2344C31.6447 27.3654 31.4902 27.5371 31.3807 27.7496C31.2733 27.96 31.2197 28.1887 31.2197 28.4355V28.9991C31.2197 29.3297 31.2776 29.6109 31.3936 29.8428C31.5116 30.0746 31.6759 30.2517 31.8862 30.3741C32.0966 30.4943 32.3424 30.5544 32.6237 30.5544C32.8061 30.5544 32.9725 30.5287 33.1228 30.4772C33.2731 30.4235 33.403 30.3441 33.5124 30.2389C33.6219 30.1337 33.7057 30.0038 33.7636 29.8492L34.6749 30.0134C34.6019 30.2818 34.471 30.5169 34.2821 30.7187C34.0953 30.9183 33.8602 31.074 33.5768 31.1856C33.2956 31.2951 32.9747 31.3498 32.614 31.3498ZM37.2026 31.3466C36.8033 31.3466 36.447 31.2446 36.1335 31.0407C35.8222 30.8346 35.5775 30.5416 35.3993 30.1616C35.2233 29.7794 35.1353 29.3211 35.1353 28.7865C35.1353 28.252 35.2244 27.7947 35.4025 27.4147C35.5829 27.0348 35.8298 26.7439 36.1432 26.5421C36.4566 26.3403 36.8119 26.2394 37.2091 26.2394C37.5161 26.2394 37.7629 26.2909 37.9497 26.3939C38.1386 26.4948 38.2846 26.6129 38.3877 26.7482C38.4929 26.8834 38.5744 27.0026 38.6324 27.1056H38.6904V24.655H39.6532V31.25H38.7129V30.4804H38.6324C38.5744 30.5856 38.4907 30.7058 38.3812 30.841C38.2739 30.9763 38.1258 31.0944 37.9368 31.1953C37.7479 31.2962 37.5032 31.3466 37.2026 31.3466ZM37.4152 30.5255C37.6921 30.5255 37.9261 30.4525 38.1172 30.3065C38.3104 30.1584 38.4564 29.9533 38.5551 29.6914C38.656 29.4295 38.7065 29.1247 38.7065 28.7769C38.7065 28.4334 38.6571 28.1328 38.5583 27.8752C38.4596 27.6176 38.3147 27.4169 38.1236 27.2731C37.9325 27.1292 37.6964 27.0573 37.4152 27.0573C37.1253 27.0573 36.8838 27.1324 36.6906 27.2827C36.4974 27.433 36.3514 27.638 36.2527 27.8978C36.1561 28.1575 36.1078 28.4506 36.1078 28.7769C36.1078 29.1075 36.1571 29.4048 36.2559 29.6689C36.3546 29.9329 36.5006 30.1423 36.6938 30.2968C36.8892 30.4492 37.1296 30.5255 37.4152 30.5255ZM44.2805 27.5113L43.4078 27.6659C43.3713 27.5543 43.3133 27.448 43.2339 27.3471C43.1566 27.2462 43.0514 27.1636 42.9183 27.0992C42.7852 27.0348 42.6188 27.0026 42.4192 27.0026C42.1466 27.0026 41.919 27.0637 41.7365 27.1861C41.554 27.3063 41.4628 27.462 41.4628 27.653C41.4628 27.8183 41.524 27.9514 41.6463 28.0523C41.7687 28.1532 41.9662 28.2359 42.2389 28.3003L43.0246 28.4806C43.4797 28.5858 43.8189 28.7479 44.0422 28.9669C44.2654 29.1859 44.3771 29.4703 44.3771 29.8202C44.3771 30.1165 44.2912 30.3805 44.1195 30.6124C43.9499 30.8421 43.7126 31.0224 43.4078 31.1534C43.1051 31.2843 42.7541 31.3498 42.3548 31.3498C41.8009 31.3498 41.349 31.2318 40.9991 30.9956C40.6492 30.7573 40.4345 30.4192 40.355 29.9812L41.2857 29.8396C41.3436 30.0821 41.4628 30.2657 41.6431 30.3902C41.8235 30.5126 42.0585 30.5738 42.3484 30.5738C42.6639 30.5738 42.9162 30.5083 43.1051 30.3773C43.294 30.2442 43.3885 30.0821 43.3885 29.8911C43.3885 29.7365 43.3305 29.6066 43.2146 29.5014C43.1008 29.3962 42.9258 29.3168 42.6897 29.2631L41.8524 29.0796C41.3909 28.9744 41.0495 28.8069 40.8284 28.5772C40.6094 28.3475 40.5 28.0566 40.5 27.7046C40.5 27.4126 40.5815 27.1571 40.7447 26.9382C40.9078 26.7192 41.1333 26.5485 41.4209 26.4261C41.7086 26.3016 42.0381 26.2394 42.4095 26.2394C42.9441 26.2394 43.3649 26.3553 43.6719 26.5871C43.9788 26.8169 44.1817 27.1249 44.2805 27.5113ZM46.1963 24.655L46.1126 29.3533H45.2206L45.1369 24.655H46.1963ZM45.6682 31.3112C45.49 31.3112 45.3376 31.2489 45.2109 31.1244C45.0843 30.9978 45.022 30.8453 45.0242 30.6671C45.022 30.4911 45.0843 30.3408 45.2109 30.2163C45.3376 30.0897 45.49 30.0263 45.6682 30.0263C45.8421 30.0263 45.9924 30.0897 46.119 30.2163C46.2457 30.3408 46.3101 30.4911 46.3123 30.6671C46.3101 30.7852 46.279 30.8936 46.2189 30.9924C46.1609 31.089 46.0836 31.1663 45.987 31.2242C45.8904 31.2822 45.7841 31.3112 45.6682 31.3112Z" fill="#1C1C1C"/>
<g clip-path="url(#clip0_7_57)">
<g filter="url(#filter1_d_7_57)">
<path d="M5.7988 48.438C5.64585 49.22 6.45921 49.8358 7.17034 49.4764L16.8603 44.5794C17.6705 44.1699 17.5092 42.968 16.6196 42.7867L12.3935 41.9251C12.0779 41.8607 11.8091 41.6555 11.6639 41.3681L9.69098 37.4643C9.27979 36.6506 8.07175 36.8177 7.8968 37.7123L5.7988 48.438Z" fill="#BE82FF"/>
</g>
</g>
<defs>
<filter id="filter0_d_7_57" x="9.75" y="0" width="133.5" height="44.5" filterUnits="userSpaceOnUse" color-interpolation-filters="sRGB">
<feFlood flood-opacity="0" result="BackgroundImageFix"/>
<feColorMatrix in="SourceAlpha" type="matrix" values="0 0 0 0 0 0 0 0 0 0 0 0 0 0 0 0 0 0 127 0" result="hardAlpha"/>
<feOffset dy="4"/>
<feGaussianBlur stdDeviation="2"/>
<feComposite in2="hardAlpha" operator="out"/>
<feColorMatrix type="matrix" values="0 0 0 0 0 0 0 0 0 0 0 0 0 0 0 0 0 0 0.02 0"/>
<feBlend mode="normal" in2="BackgroundImageFix" result="effect1_dropShadow_7_57"/>
<feBlend mode="normal" in="SourceGraphic" in2="effect1_dropShadow_7_57" result="shape"/>
</filter>
<filter id="filter1_d_7_57" x="1.78003" y="36.9383" width="19.6062" height="20.6432" filterUnits="userSpaceOnUse" color-interpolation-filters="sRGB">
<feFlood flood-opacity="0" result="BackgroundImageFix"/>
<feColorMatrix in="SourceAlpha" type="matrix" values="0 0 0 0 0 0 0 0 0 0 0 0 0 0 0 0 0 0 127 0" result="hardAlpha"/>
<feOffset dy="4"/>
<feGaussianBlur stdDeviation="2"/>
<feComposite in2="hardAlpha" operator="out"/>
<feColorMatrix type="matrix" values="0 0 0 0 0 0 0 0 0 0 0 0 0 0 0 0 0 0 0.02 0"/>
<feBlend mode="normal" in2="BackgroundImageFix" result="effect1_dropShadow_7_57"/>
<feBlend mode="normal" in="SourceGraphic" in2="effect1_dropShadow_7_57" result="shape"/>
</filter>
<clipPath id="clip0_7_57">
<rect width="15.3196" height="15.3196" fill="white" transform="translate(6.17383 53.4443) rotate(-113.766)"/>
</clipPath>
</defs>
</svg>
