<svg width="44" height="31" viewBox="0 0 44 31" fill="none" xmlns="http://www.w3.org/2000/svg">
<g clip-path="url(#clip0_7_45)" filter="url(#filter0_d_7_45)">
<path d="M19.0658 8.49091C20.2169 6.10362 19.2147 3.23523 16.8274 2.08417C14.4402 0.933116 11.5718 1.93528 10.4207 4.32257L2.084 21.6128C0.932943 24.0001 1.9351 26.8685 4.32238 28.0196C6.70966 29.1706 9.57805 28.1685 10.7291 25.7812L19.0658 8.49091Z" fill="url(#paint0_linear_7_45)"/>
<path d="M30.463 8.49091C31.6141 6.10362 30.6119 3.23523 28.2247 2.08417C25.8374 0.933116 22.969 1.93528 21.8179 4.32257L18.9065 10.3608C17.7555 12.7481 18.7576 15.6164 21.1449 16.7675C23.5322 17.9186 26.4006 16.9164 27.5516 14.5291L30.463 8.49091Z" fill="url(#paint1_linear_7_45)"/>
<path d="M41.9157 8.49091C43.0667 6.10362 42.0646 3.23523 39.6773 2.08417C37.29 0.933115 34.4216 1.93528 33.2706 4.32257L24.9339 21.6128C23.7828 24.0001 24.785 26.8685 27.1722 28.0196C29.5595 29.1706 32.4279 28.1685 33.579 25.7812L41.9157 8.49091Z" fill="url(#paint2_linear_7_45)"/>
</g>
<defs>
<filter id="filter0_d_7_45" x="-0.858537" y="0" width="45.7171" height="31.8571" filterUnits="userSpaceOnUse" color-interpolation-filters="sRGB">
<feFlood flood-opacity="0" result="BackgroundImageFix"/>
<feColorMatrix in="SourceAlpha" type="matrix" values="0 0 0 0 0 0 0 0 0 0 0 0 0 0 0 0 0 0 127 0" result="hardAlpha"/>
<feOffset dy="0.858537"/>
<feGaussianBlur stdDeviation="0.429268"/>
<feComposite in2="hardAlpha" operator="out"/>
<feColorMatrix type="matrix" values="0 0 0 0 0 0 0 0 0 0 0 0 0 0 0 0 0 0 0.02 0"/>
<feBlend mode="normal" in2="BackgroundImageFix" result="effect1_dropShadow_7_45"/>
<feBlend mode="normal" in="SourceGraphic" in2="effect1_dropShadow_7_45" result="shape"/>
</filter>
<linearGradient id="paint0_linear_7_45" x1="16.8274" y1="2.08417" x2="4.32238" y2="28.0196" gradientUnits="userSpaceOnUse">
<stop stop-color="#614BDF"/>
<stop offset="1" stop-color="#BE82FF"/>
</linearGradient>
<linearGradient id="paint1_linear_7_45" x1="28.2247" y1="2.08417" x2="21.1449" y2="16.7675" gradientUnits="userSpaceOnUse">
<stop stop-color="#614BDF"/>
<stop offset="1" stop-color="#BE82FF"/>
</linearGradient>
<linearGradient id="paint2_linear_7_45" x1="39.6773" y1="2.08417" x2="27.1722" y2="28.0196" gradientUnits="userSpaceOnUse">
<stop stop-color="#614BDF"/>
<stop offset="1" stop-color="#BE82FF"/>
</linearGradient>
<clipPath id="clip0_7_45">
<rect width="44" height="30.14" fill="white"/>
</clipPath>
</defs>
</svg>
